<svg xmlns="http://www.w3.org/2000/svg" xmlns:xlink="http://www.w3.org/1999/xlink" id="terminal" baseProfile="full" viewBox="0 0 632 393" width="632" version="1.1">
    <defs>
        <termtosvg:template_settings xmlns:termtosvg="https://github.com/nbedos/termtosvg">
            <termtosvg:screen_geometry columns="79" rows="23"/>
            <termtosvg:animation type="css"/>
        </termtosvg:template_settings>
        <style type="text/css" id="generated-style"><![CDATA[#screen {
                font-family: 'DejaVu Sans Mono', monospace;
                font-style: normal;
                font-size: 14px;
            }

        text {
            dominant-baseline: text-before-edge;
            white-space: pre;
        }
    
            :root {
                --animation-duration: 4570ms;
            }

            @keyframes roll {
                0.000%{transform:translateY(0px)}
0.022%{transform:translateY(-408px)}
0.044%{transform:translateY(-816px)}
0.241%{transform:translateY(-1224px)}
1.028%{transform:translateY(-1632px)}
1.772%{transform:translateY(-2040px)}
14.508%{transform:translateY(-2448px)}
26.543%{transform:translateY(-2856px)}
36.958%{transform:translateY(-3264px)}
38.074%{transform:translateY(-3672px)}
47.571%{transform:translateY(-4080px)}
60.109%{transform:translateY(-4488px)}
69.650%{transform:translateY(-4896px)}
78.118%{transform:translateY(-5304px)}
100.000%{transform:translateY(-5304px)}
            }

            #screen_view {
                animation-duration: 4570ms;
                animation-iteration-count:infinite;
                animation-name:roll;
                animation-timing-function: steps(1,end);
                animation-fill-mode: forwards;
            }
        ]]></style>
        <style type="text/css" id="user-style">
            /* The colors defined below are the default 16 colors used for rendering text of the terminal. Adjust
               them as needed.
               PowerShell colors based on https://en.wikipedia.org/wiki/ANSI_escape_code#Colors */
            .foreground {fill: #cccccc;}
            .background {fill: #0c0c0c;}
            .color0 {fill: #0c0c0c;}
            .color1 {fill: #c50f1f;}
            .color2 {fill: #13a10e;}
            .color3 {fill: #c19c00;}
            .color4 {fill: #0037da;}
            .color5 {fill: #881798;}
            .color6 {fill: #3a96dd;}
            .color7 {fill: #cccccc;}
            .color8 {fill: #767676;}
            .color9 {fill: #e74856;}
            .color10 {fill: #16c60c;}
            .color11 {fill: #f9f1a5;}
            .color12 {fill: #3b78ff;}
            .color13 {fill: #b4009e;}
            .color14 {fill: #61d6d6;}
            .color15 {fill: #f2f2f2;}
        </style>
    </defs>
    <svg id="screen" width="632" height="391" viewBox="0 0 632 391" preserveAspectRatio="xMidYMin slice">
    <rect class="background" height="100%" width="100%" x="0" y="0"/><defs><g id="g1"><text x="0" textLength="240" class="color6">lqqqqqqqqqqqqqqqqqqqqqqqqqqqqq</text><text x="240" textLength="144" font-weight="bold" class="color11"> AlsaMixer v1.2.4 </text><text x="384" textLength="248" class="color6">qqqqqqqqqqqqqqqqqqqqqqqqqqqqqqk</text></g><g id="g2"><text x="0" textLength="64" class="color6">x Card: </text><text x="64" textLength="368" font-weight="bold" class="color11">PulseAudio                                    </text><text x="432" textLength="200" class="color6">F1:  Help               x</text></g><g id="g3"><text x="0" textLength="64" class="color6">x Chip: </text><text x="64" textLength="368" font-weight="bold" class="color11">PulseAudio                                    </text></g><g id="g4"><text x="0" textLength="64" class="color6">x Chip: </text><text x="64" textLength="368" font-weight="bold" class="color11">PulseAudio                                    </text><text x="432" textLength="200" class="color6">F2:  System information x</text></g><g id="g5"><text x="0" textLength="88" class="color6">x View: F3:</text><text x="88" textLength="80" font-weight="bold" class="color11">[Playback]</text><text x="168" textLength="464" class="color6"> F4: Capture  F5: All            F6:  Select sound card  x</text></g><g id="g6"><text x="0" textLength="64" class="color6">x Item: </text><text x="64" textLength="368" font-weight="bold" class="color11">Master                                        </text><text x="432" textLength="200" class="color6">Esc: Exit               x</text></g><g id="g7"><text x="0" textLength="632" class="color6">x                                                                             x</text></g><g id="g8"><text x="0" textLength="296" class="color6">x                                    </text><text x="296" textLength="32" font-weight="bold" class="color14">lqqk</text><text x="328" textLength="304" class="color6">                                     x</text></g><g id="g9"><text x="0" textLength="296" class="color6">x                                    </text><text x="296" textLength="32" font-weight="bold" class="color14">x  x</text><text x="328" textLength="304" class="color6">                                     x</text></g><g id="g10"><text x="0" textLength="8" class="color6">x</text></g><g id="g11"><text x="0" textLength="296" class="color6">x                                    </text><text x="296" textLength="8" font-weight="bold" class="color14">x</text><text x="304" textLength="16" font-weight="bold" class="color15">aa</text><text x="320" textLength="8" font-weight="bold" class="color14">x</text><text x="328" textLength="304" class="color6">                                     x</text></g><g id="g12"><text x="0" textLength="296" class="color6">x                                    </text><text x="296" textLength="8" font-weight="bold" class="color14">x</text><text x="304" textLength="16" font-weight="bold" class="color10">aa</text><text x="320" textLength="8" font-weight="bold" class="color14">x</text><text x="328" textLength="304" class="color6">                                     x</text></g><g id="g13"><text x="0" textLength="296" class="color6">x                                    </text><text x="296" textLength="8" font-weight="bold" class="color14">x</text></g><g id="g14"><text x="0" textLength="296" class="color6">x                                    </text><text x="296" textLength="32" font-weight="bold" class="color14">tqqu</text><text x="328" textLength="304" class="color6">                                     x</text></g><g id="g15"><text x="0" textLength="296" class="color6">x                                    </text><text x="296" textLength="8" font-weight="bold" class="color14">x</text><text x="304" textLength="16" font-weight="bold" class="color15">OO</text><text x="320" textLength="8" font-weight="bold" class="color14">x</text><text x="328" textLength="304" class="color6">                                     x</text></g><g id="g16"><text x="0" textLength="296" class="color6">x                                    </text><text x="296" textLength="32" font-weight="bold" class="color14">mqqj</text><text x="328" textLength="304" class="color6">                                     x</text></g><g id="g17"><text x="0" textLength="280" class="color6">x                                  </text><text x="280" textLength="24" font-weight="bold" class="color11"> 65</text><text x="304" textLength="16" font-weight="bold" class="color14">&lt;&gt;</text><text x="320" textLength="24" font-weight="bold" class="color11">65 </text><text x="344" textLength="288" class="color6">                                   x</text></g><g id="g18"><text x="0" textLength="272" class="color6">x                                 </text><text x="272" textLength="80" font-weight="bold" class="color9">&lt; Master &gt;</text><text x="352" textLength="280" class="color6">                                  x</text></g><g id="g19"><text x="0" textLength="632" class="color6">mqqqqqqqqqqqqqqqqqqqqqqqqqqqqqqqqqqqqqqqqqqqqqqqqqqqqqqqqqqqqqqqqqqqqqqqqqqqqqj</text><text x="632" textLength="8" class="foreground"> </text></g><g id="g20"><text x="0" textLength="280" class="color6">x                                  </text><text x="280" textLength="24" font-weight="bold" class="color11"> 70</text><text x="304" textLength="16" font-weight="bold" class="color14">&lt;&gt;</text><text x="320" textLength="24" font-weight="bold" class="color11">70 </text><text x="344" textLength="288" class="color6">                                   x</text></g><g id="g21"><text x="0" textLength="8" class="background">m</text><text x="8" textLength="624" class="color6">qqqqqqqqqqqqqqqqqqqqqqqqqqqqqqqqqqqqqqqqqqqqqqqqqqqqqqqqqqqqqqqqqqqqqqqqqqqqqj</text><text x="632" textLength="8" class="foreground"> </text></g></defs><g id="screen_view"><g/><g><rect x="0" y="408" width="632" height="17" class="color0"/><use xlink:href="#g1" y="408"/><rect x="0" y="425" width="632" height="17" class="color0"/><use xlink:href="#g2" y="425"/><rect x="0" y="442" width="432" height="17" class="color0"/><use xlink:href="#g3" y="442"/></g><g><rect x="0" y="816" width="632" height="17" class="color0"/><use xlink:href="#g1" y="816"/><rect x="0" y="833" width="632" height="17" class="color0"/><use xlink:href="#g2" y="833"/><rect x="0" y="850" width="632" height="17" class="color0"/><use xlink:href="#g4" y="850"/><rect x="0" y="867" width="632" height="17" class="color0"/><use xlink:href="#g5" y="867"/><rect x="0" y="884" width="632" height="17" class="color0"/><use xlink:href="#g6" y="884"/><rect x="0" y="901" width="632" height="17" class="color0"/><use xlink:href="#g7" y="901"/><rect x="0" y="918" width="632" height="17" class="color0"/><use xlink:href="#g8" y="918"/><rect x="0" y="935" width="632" height="17" class="color0"/><use xlink:href="#g9" y="935"/><rect x="0" y="952" width="632" height="17" class="color0"/><use xlink:href="#g9" y="952"/><rect x="0" y="969" width="8" height="17" class="color0"/><use xlink:href="#g10" y="969"/></g><g><rect x="0" y="1224" width="632" height="17" class="color0"/><use xlink:href="#g1" y="1224"/><rect x="0" y="1241" width="632" height="17" class="color0"/><use xlink:href="#g2" y="1241"/><rect x="0" y="1258" width="632" height="17" class="color0"/><use xlink:href="#g4" y="1258"/><rect x="0" y="1275" width="632" height="17" class="color0"/><use xlink:href="#g5" y="1275"/><rect x="0" y="1292" width="632" height="17" class="color0"/><use xlink:href="#g6" y="1292"/><rect x="0" y="1309" width="632" height="17" class="color0"/><use xlink:href="#g7" y="1309"/><rect x="0" y="1326" width="632" height="17" class="color0"/><use xlink:href="#g8" y="1326"/><rect x="0" y="1343" width="632" height="17" class="color0"/><use xlink:href="#g9" y="1343"/><rect x="0" y="1360" width="632" height="17" class="color0"/><use xlink:href="#g9" y="1360"/><rect x="0" y="1377" width="632" height="17" class="color0"/><use xlink:href="#g9" y="1377"/><rect x="0" y="1394" width="632" height="17" class="color0"/><use xlink:href="#g9" y="1394"/><rect x="0" y="1411" width="304" height="17" class="color0"/><rect x="304" y="1411" width="16" height="17" class="color7"/><rect x="320" y="1411" width="312" height="17" class="color0"/><use xlink:href="#g11" y="1411"/><rect x="0" y="1428" width="304" height="17" class="color0"/><rect x="304" y="1428" width="16" height="17" class="color2"/><rect x="320" y="1428" width="312" height="17" class="color0"/><use xlink:href="#g12" y="1428"/><rect x="0" y="1445" width="304" height="17" class="color0"/><rect x="304" y="1445" width="16" height="17" class="color2"/><rect x="320" y="1445" width="312" height="17" class="color0"/><use xlink:href="#g12" y="1445"/><rect x="0" y="1462" width="304" height="17" class="color0"/><rect x="304" y="1462" width="16" height="17" class="color2"/><rect x="320" y="1462" width="312" height="17" class="color0"/><use xlink:href="#g12" y="1462"/><rect x="0" y="1479" width="304" height="17" class="color0"/><use xlink:href="#g13" y="1479"/></g><g><rect x="0" y="1632" width="632" height="17" class="color0"/><use xlink:href="#g1" y="1632"/><rect x="0" y="1649" width="632" height="17" class="color0"/><use xlink:href="#g2" y="1649"/><rect x="0" y="1666" width="632" height="17" class="color0"/><use xlink:href="#g4" y="1666"/><rect x="0" y="1683" width="632" height="17" class="color0"/><use xlink:href="#g5" y="1683"/><rect x="0" y="1700" width="632" height="17" class="color0"/><use xlink:href="#g6" y="1700"/><rect x="0" y="1717" width="632" height="17" class="color0"/><use xlink:href="#g7" y="1717"/><rect x="0" y="1734" width="632" height="17" class="color0"/><use xlink:href="#g8" y="1734"/><rect x="0" y="1751" width="632" height="17" class="color0"/><use xlink:href="#g9" y="1751"/><rect x="0" y="1768" width="632" height="17" class="color0"/><use xlink:href="#g9" y="1768"/><rect x="0" y="1785" width="632" height="17" class="color0"/><use xlink:href="#g9" y="1785"/><rect x="0" y="1802" width="632" height="17" class="color0"/><use xlink:href="#g9" y="1802"/><rect x="0" y="1819" width="304" height="17" class="color0"/><rect x="304" y="1819" width="16" height="17" class="color7"/><rect x="320" y="1819" width="312" height="17" class="color0"/><use xlink:href="#g11" y="1819"/><rect x="0" y="1836" width="304" height="17" class="color0"/><rect x="304" y="1836" width="16" height="17" class="color2"/><rect x="320" y="1836" width="312" height="17" class="color0"/><use xlink:href="#g12" y="1836"/><rect x="0" y="1853" width="304" height="17" class="color0"/><rect x="304" y="1853" width="16" height="17" class="color2"/><rect x="320" y="1853" width="312" height="17" class="color0"/><use xlink:href="#g12" y="1853"/><rect x="0" y="1870" width="304" height="17" class="color0"/><rect x="304" y="1870" width="16" height="17" class="color2"/><rect x="320" y="1870" width="312" height="17" class="color0"/><use xlink:href="#g12" y="1870"/><rect x="0" y="1887" width="304" height="17" class="color0"/><rect x="304" y="1887" width="16" height="17" class="color2"/><rect x="320" y="1887" width="312" height="17" class="color0"/><use xlink:href="#g12" y="1887"/><rect x="0" y="1904" width="304" height="17" class="color0"/><rect x="304" y="1904" width="16" height="17" class="color2"/><rect x="320" y="1904" width="312" height="17" class="color0"/><use xlink:href="#g12" y="1904"/><rect x="0" y="1921" width="632" height="17" class="color0"/><use xlink:href="#g14" y="1921"/><rect x="0" y="1938" width="304" height="17" class="color0"/><rect x="304" y="1938" width="16" height="17" class="color2"/><rect x="320" y="1938" width="312" height="17" class="color0"/><use xlink:href="#g15" y="1938"/><rect x="0" y="1955" width="632" height="17" class="color0"/><use xlink:href="#g16" y="1955"/><rect x="0" y="1972" width="632" height="17" class="color0"/><use xlink:href="#g17" y="1972"/><rect x="0" y="1989" width="280" height="17" class="color0"/><rect x="280" y="1989" width="64" height="17" class="color4"/><rect x="344" y="1989" width="288" height="17" class="color0"/><use xlink:href="#g18" y="1989"/></g><g><rect x="0" y="2040" width="632" height="17" class="color0"/><use xlink:href="#g1" y="2040"/><rect x="0" y="2057" width="632" height="17" class="color0"/><use xlink:href="#g2" y="2057"/><rect x="0" y="2074" width="632" height="17" class="color0"/><use xlink:href="#g4" y="2074"/><rect x="0" y="2091" width="632" height="17" class="color0"/><use xlink:href="#g5" y="2091"/><rect x="0" y="2108" width="632" height="17" class="color0"/><use xlink:href="#g6" y="2108"/><rect x="0" y="2125" width="632" height="17" class="color0"/><use xlink:href="#g7" y="2125"/><rect x="0" y="2142" width="632" height="17" class="color0"/><use xlink:href="#g8" y="2142"/><rect x="0" y="2159" width="632" height="17" class="color0"/><use xlink:href="#g9" y="2159"/><rect x="0" y="2176" width="632" height="17" class="color0"/><use xlink:href="#g9" y="2176"/><rect x="0" y="2193" width="632" height="17" class="color0"/><use xlink:href="#g9" y="2193"/><rect x="0" y="2210" width="632" height="17" class="color0"/><use xlink:href="#g9" y="2210"/><rect x="0" y="2227" width="304" height="17" class="color0"/><rect x="304" y="2227" width="16" height="17" class="color7"/><rect x="320" y="2227" width="312" height="17" class="color0"/><use xlink:href="#g11" y="2227"/><rect x="0" y="2244" width="304" height="17" class="color0"/><rect x="304" y="2244" width="16" height="17" class="color2"/><rect x="320" y="2244" width="312" height="17" class="color0"/><use xlink:href="#g12" y="2244"/><rect x="0" y="2261" width="304" height="17" class="color0"/><rect x="304" y="2261" width="16" height="17" class="color2"/><rect x="320" y="2261" width="312" height="17" class="color0"/><use xlink:href="#g12" y="2261"/><rect x="0" y="2278" width="304" height="17" class="color0"/><rect x="304" y="2278" width="16" height="17" class="color2"/><rect x="320" y="2278" width="312" height="17" class="color0"/><use xlink:href="#g12" y="2278"/><rect x="0" y="2295" width="304" height="17" class="color0"/><rect x="304" y="2295" width="16" height="17" class="color2"/><rect x="320" y="2295" width="312" height="17" class="color0"/><use xlink:href="#g12" y="2295"/><rect x="0" y="2312" width="304" height="17" class="color0"/><rect x="304" y="2312" width="16" height="17" class="color2"/><rect x="320" y="2312" width="312" height="17" class="color0"/><use xlink:href="#g12" y="2312"/><rect x="0" y="2329" width="632" height="17" class="color0"/><use xlink:href="#g14" y="2329"/><rect x="0" y="2346" width="304" height="17" class="color0"/><rect x="304" y="2346" width="16" height="17" class="color2"/><rect x="320" y="2346" width="312" height="17" class="color0"/><use xlink:href="#g15" y="2346"/><rect x="0" y="2363" width="632" height="17" class="color0"/><use xlink:href="#g16" y="2363"/><rect x="0" y="2380" width="632" height="17" class="color0"/><use xlink:href="#g17" y="2380"/><rect x="0" y="2397" width="280" height="17" class="color0"/><rect x="280" y="2397" width="64" height="17" class="color4"/><rect x="344" y="2397" width="288" height="17" class="color0"/><use xlink:href="#g18" y="2397"/><rect x="0" y="2414" width="632" height="17" class="color0"/><use xlink:href="#g19" y="2414"/></g><g><rect x="0" y="2448" width="632" height="17" class="color0"/><use xlink:href="#g1" y="2448"/><rect x="0" y="2465" width="632" height="17" class="color0"/><use xlink:href="#g2" y="2465"/><rect x="0" y="2482" width="632" height="17" class="color0"/><use xlink:href="#g4" y="2482"/><rect x="0" y="2499" width="632" height="17" class="color0"/><use xlink:href="#g5" y="2499"/><rect x="0" y="2516" width="632" height="17" class="color0"/><use xlink:href="#g6" y="2516"/><rect x="0" y="2533" width="632" height="17" class="color0"/><use xlink:href="#g7" y="2533"/><rect x="0" y="2550" width="632" height="17" class="color0"/><use xlink:href="#g8" y="2550"/><rect x="0" y="2567" width="632" height="17" class="color0"/><use xlink:href="#g9" y="2567"/><rect x="0" y="2584" width="632" height="17" class="color0"/><use xlink:href="#g9" y="2584"/><rect x="0" y="2601" width="632" height="17" class="color0"/><use xlink:href="#g9" y="2601"/><rect x="0" y="2618" width="304" height="17" class="color0"/><rect x="304" y="2618" width="16" height="17" class="color7"/><rect x="320" y="2618" width="312" height="17" class="color0"/><use xlink:href="#g11" y="2618"/><rect x="0" y="2635" width="304" height="17" class="color0"/><rect x="304" y="2635" width="16" height="17" class="color7"/><rect x="320" y="2635" width="312" height="17" class="color0"/><use xlink:href="#g11" y="2635"/><rect x="0" y="2652" width="304" height="17" class="color0"/><rect x="304" y="2652" width="16" height="17" class="color2"/><rect x="320" y="2652" width="312" height="17" class="color0"/><use xlink:href="#g12" y="2652"/><rect x="0" y="2669" width="304" height="17" class="color0"/><rect x="304" y="2669" width="16" height="17" class="color2"/><rect x="320" y="2669" width="312" height="17" class="color0"/><use xlink:href="#g12" y="2669"/><rect x="0" y="2686" width="304" height="17" class="color0"/><rect x="304" y="2686" width="16" height="17" class="color2"/><rect x="320" y="2686" width="312" height="17" class="color0"/><use xlink:href="#g12" y="2686"/><rect x="0" y="2703" width="304" height="17" class="color0"/><rect x="304" y="2703" width="16" height="17" class="color2"/><rect x="320" y="2703" width="312" height="17" class="color0"/><use xlink:href="#g12" y="2703"/><rect x="0" y="2720" width="304" height="17" class="color0"/><rect x="304" y="2720" width="16" height="17" class="color2"/><rect x="320" y="2720" width="312" height="17" class="color0"/><use xlink:href="#g12" y="2720"/><rect x="0" y="2737" width="632" height="17" class="color0"/><use xlink:href="#g14" y="2737"/><rect x="0" y="2754" width="304" height="17" class="color0"/><rect x="304" y="2754" width="16" height="17" class="color2"/><rect x="320" y="2754" width="312" height="17" class="color0"/><use xlink:href="#g15" y="2754"/><rect x="0" y="2771" width="632" height="17" class="color0"/><use xlink:href="#g16" y="2771"/><rect x="0" y="2788" width="632" height="17" class="color0"/><use xlink:href="#g20" y="2788"/><rect x="0" y="2805" width="280" height="17" class="color0"/><rect x="280" y="2805" width="64" height="17" class="color4"/><rect x="344" y="2805" width="288" height="17" class="color0"/><use xlink:href="#g18" y="2805"/><rect x="0" y="2822" width="632" height="17" class="color0"/><use xlink:href="#g19" y="2822"/></g><g><rect x="0" y="2856" width="632" height="17" class="color0"/><use xlink:href="#g1" y="2856"/><rect x="0" y="2873" width="632" height="17" class="color0"/><use xlink:href="#g2" y="2873"/><rect x="0" y="2890" width="632" height="17" class="color0"/><use xlink:href="#g4" y="2890"/><rect x="0" y="2907" width="632" height="17" class="color0"/><use xlink:href="#g5" y="2907"/><rect x="0" y="2924" width="632" height="17" class="color0"/><use xlink:href="#g6" y="2924"/><rect x="0" y="2941" width="632" height="17" class="color0"/><use xlink:href="#g7" y="2941"/><rect x="0" y="2958" width="632" height="17" class="color0"/><use xlink:href="#g8" y="2958"/><rect x="0" y="2975" width="632" height="17" class="color0"/><use xlink:href="#g9" y="2975"/><rect x="0" y="2992" width="632" height="17" class="color0"/><use xlink:href="#g9" y="2992"/><rect x="0" y="3009" width="632" height="17" class="color0"/><use xlink:href="#g9" y="3009"/><rect x="0" y="3026" width="632" height="17" class="color0"/><use xlink:href="#g9" y="3026"/><rect x="0" y="3043" width="304" height="17" class="color0"/><rect x="304" y="3043" width="16" height="17" class="color7"/><rect x="320" y="3043" width="312" height="17" class="color0"/><use xlink:href="#g11" y="3043"/><rect x="0" y="3060" width="304" height="17" class="color0"/><rect x="304" y="3060" width="16" height="17" class="color2"/><rect x="320" y="3060" width="312" height="17" class="color0"/><use xlink:href="#g12" y="3060"/><rect x="0" y="3077" width="304" height="17" class="color0"/><rect x="304" y="3077" width="16" height="17" class="color2"/><rect x="320" y="3077" width="312" height="17" class="color0"/><use xlink:href="#g12" y="3077"/><rect x="0" y="3094" width="304" height="17" class="color0"/><rect x="304" y="3094" width="16" height="17" class="color2"/><rect x="320" y="3094" width="312" height="17" class="color0"/><use xlink:href="#g12" y="3094"/><rect x="0" y="3111" width="304" height="17" class="color0"/><rect x="304" y="3111" width="16" height="17" class="color2"/><rect x="320" y="3111" width="312" height="17" class="color0"/><use xlink:href="#g12" y="3111"/><rect x="0" y="3128" width="304" height="17" class="color0"/><rect x="304" y="3128" width="16" height="17" class="color2"/><rect x="320" y="3128" width="312" height="17" class="color0"/><use xlink:href="#g12" y="3128"/><rect x="0" y="3145" width="632" height="17" class="color0"/><use xlink:href="#g14" y="3145"/><rect x="0" y="3162" width="304" height="17" class="color0"/><rect x="304" y="3162" width="16" height="17" class="color2"/><rect x="320" y="3162" width="312" height="17" class="color0"/><use xlink:href="#g15" y="3162"/><rect x="0" y="3179" width="632" height="17" class="color0"/><use xlink:href="#g16" y="3179"/><rect x="0" y="3196" width="632" height="17" class="color0"/><use xlink:href="#g17" y="3196"/><rect x="0" y="3213" width="280" height="17" class="color0"/><rect x="280" y="3213" width="64" height="17" class="color4"/><rect x="344" y="3213" width="288" height="17" class="color0"/><use xlink:href="#g18" y="3213"/><rect x="0" y="3230" width="632" height="17" class="color0"/><use xlink:href="#g19" y="3230"/></g><g><rect x="0" y="3264" width="632" height="17" class="color0"/><use xlink:href="#g1" y="3264"/><rect x="0" y="3281" width="632" height="17" class="color0"/><use xlink:href="#g2" y="3281"/><rect x="0" y="3298" width="632" height="17" class="color0"/><use xlink:href="#g4" y="3298"/><rect x="0" y="3315" width="632" height="17" class="color0"/><use xlink:href="#g5" y="3315"/><rect x="0" y="3332" width="632" height="17" class="color0"/><use xlink:href="#g6" y="3332"/><rect x="0" y="3349" width="632" height="17" class="color0"/><use xlink:href="#g7" y="3349"/><rect x="0" y="3366" width="632" height="17" class="color0"/><use xlink:href="#g8" y="3366"/><rect x="0" y="3383" width="632" height="17" class="color0"/><use xlink:href="#g9" y="3383"/><rect x="0" y="3400" width="632" height="17" class="color0"/><use xlink:href="#g9" y="3400"/><rect x="0" y="3417" width="632" height="17" class="color0"/><use xlink:href="#g9" y="3417"/><rect x="0" y="3434" width="304" height="17" class="color0"/><rect x="304" y="3434" width="16" height="17" class="color7"/><rect x="320" y="3434" width="312" height="17" class="color0"/><use xlink:href="#g11" y="3434"/><rect x="0" y="3451" width="304" height="17" class="color0"/><rect x="304" y="3451" width="16" height="17" class="color7"/><rect x="320" y="3451" width="312" height="17" class="color0"/><use xlink:href="#g11" y="3451"/><rect x="0" y="3468" width="304" height="17" class="color0"/><rect x="304" y="3468" width="16" height="17" class="color2"/><rect x="320" y="3468" width="312" height="17" class="color0"/><use xlink:href="#g12" y="3468"/><rect x="0" y="3485" width="304" height="17" class="color0"/><rect x="304" y="3485" width="16" height="17" class="color2"/><rect x="320" y="3485" width="312" height="17" class="color0"/><use xlink:href="#g12" y="3485"/><rect x="0" y="3502" width="304" height="17" class="color0"/><rect x="304" y="3502" width="16" height="17" class="color2"/><rect x="320" y="3502" width="312" height="17" class="color0"/><use xlink:href="#g12" y="3502"/><rect x="0" y="3519" width="304" height="17" class="color0"/><rect x="304" y="3519" width="16" height="17" class="color2"/><rect x="320" y="3519" width="312" height="17" class="color0"/><use xlink:href="#g12" y="3519"/><rect x="0" y="3536" width="304" height="17" class="color0"/><rect x="304" y="3536" width="16" height="17" class="color2"/><rect x="320" y="3536" width="312" height="17" class="color0"/><use xlink:href="#g12" y="3536"/><rect x="0" y="3553" width="632" height="17" class="color0"/><use xlink:href="#g14" y="3553"/><rect x="0" y="3570" width="304" height="17" class="color0"/><rect x="304" y="3570" width="16" height="17" class="color2"/><rect x="320" y="3570" width="312" height="17" class="color0"/><use xlink:href="#g15" y="3570"/><rect x="0" y="3587" width="632" height="17" class="color0"/><use xlink:href="#g16" y="3587"/><rect x="0" y="3604" width="632" height="17" class="color0"/><use xlink:href="#g17" y="3604"/><rect x="0" y="3621" width="280" height="17" class="color0"/><rect x="280" y="3621" width="64" height="17" class="color4"/><rect x="344" y="3621" width="288" height="17" class="color0"/><use xlink:href="#g18" y="3621"/><rect x="0" y="3638" width="632" height="17" class="color0"/><use xlink:href="#g19" y="3638"/></g><g><rect x="0" y="3672" width="632" height="17" class="color0"/><use xlink:href="#g1" y="3672"/><rect x="0" y="3689" width="632" height="17" class="color0"/><use xlink:href="#g2" y="3689"/><rect x="0" y="3706" width="632" height="17" class="color0"/><use xlink:href="#g4" y="3706"/><rect x="0" y="3723" width="632" height="17" class="color0"/><use xlink:href="#g5" y="3723"/><rect x="0" y="3740" width="632" height="17" class="color0"/><use xlink:href="#g6" y="3740"/><rect x="0" y="3757" width="632" height="17" class="color0"/><use xlink:href="#g7" y="3757"/><rect x="0" y="3774" width="632" height="17" class="color0"/><use xlink:href="#g8" y="3774"/><rect x="0" y="3791" width="632" height="17" class="color0"/><use xlink:href="#g9" y="3791"/><rect x="0" y="3808" width="632" height="17" class="color0"/><use xlink:href="#g9" y="3808"/><rect x="0" y="3825" width="632" height="17" class="color0"/><use xlink:href="#g9" y="3825"/><rect x="0" y="3842" width="304" height="17" class="color0"/><rect x="304" y="3842" width="16" height="17" class="color7"/><rect x="320" y="3842" width="312" height="17" class="color0"/><use xlink:href="#g11" y="3842"/><rect x="0" y="3859" width="304" height="17" class="color0"/><rect x="304" y="3859" width="16" height="17" class="color7"/><rect x="320" y="3859" width="312" height="17" class="color0"/><use xlink:href="#g11" y="3859"/><rect x="0" y="3876" width="304" height="17" class="color0"/><rect x="304" y="3876" width="16" height="17" class="color2"/><rect x="320" y="3876" width="312" height="17" class="color0"/><use xlink:href="#g12" y="3876"/><rect x="0" y="3893" width="304" height="17" class="color0"/><rect x="304" y="3893" width="16" height="17" class="color2"/><rect x="320" y="3893" width="312" height="17" class="color0"/><use xlink:href="#g12" y="3893"/><rect x="0" y="3910" width="304" height="17" class="color0"/><rect x="304" y="3910" width="16" height="17" class="color2"/><rect x="320" y="3910" width="312" height="17" class="color0"/><use xlink:href="#g12" y="3910"/><rect x="0" y="3927" width="304" height="17" class="color0"/><rect x="304" y="3927" width="16" height="17" class="color2"/><rect x="320" y="3927" width="312" height="17" class="color0"/><use xlink:href="#g12" y="3927"/><rect x="0" y="3944" width="304" height="17" class="color0"/><rect x="304" y="3944" width="16" height="17" class="color2"/><rect x="320" y="3944" width="312" height="17" class="color0"/><use xlink:href="#g12" y="3944"/><rect x="0" y="3961" width="632" height="17" class="color0"/><use xlink:href="#g14" y="3961"/><rect x="0" y="3978" width="304" height="17" class="color0"/><rect x="304" y="3978" width="16" height="17" class="color2"/><rect x="320" y="3978" width="312" height="17" class="color0"/><use xlink:href="#g15" y="3978"/><rect x="0" y="3995" width="632" height="17" class="color0"/><use xlink:href="#g16" y="3995"/><rect x="0" y="4012" width="632" height="17" class="color0"/><use xlink:href="#g20" y="4012"/><rect x="0" y="4029" width="280" height="17" class="color0"/><rect x="280" y="4029" width="64" height="17" class="color4"/><rect x="344" y="4029" width="288" height="17" class="color0"/><use xlink:href="#g18" y="4029"/><rect x="0" y="4046" width="632" height="17" class="color0"/><use xlink:href="#g19" y="4046"/></g><g><rect x="0" y="4080" width="632" height="17" class="color0"/><use xlink:href="#g1" y="4080"/><rect x="0" y="4097" width="632" height="17" class="color0"/><use xlink:href="#g2" y="4097"/><rect x="0" y="4114" width="632" height="17" class="color0"/><use xlink:href="#g4" y="4114"/><rect x="0" y="4131" width="632" height="17" class="color0"/><use xlink:href="#g5" y="4131"/><rect x="0" y="4148" width="632" height="17" class="color0"/><use xlink:href="#g6" y="4148"/><rect x="0" y="4165" width="632" height="17" class="color0"/><use xlink:href="#g7" y="4165"/><rect x="0" y="4182" width="632" height="17" class="color0"/><use xlink:href="#g8" y="4182"/><rect x="0" y="4199" width="632" height="17" class="color0"/><use xlink:href="#g9" y="4199"/><rect x="0" y="4216" width="632" height="17" class="color0"/><use xlink:href="#g9" y="4216"/><rect x="0" y="4233" width="632" height="17" class="color0"/><use xlink:href="#g9" y="4233"/><rect x="0" y="4250" width="632" height="17" class="color0"/><use xlink:href="#g9" y="4250"/><rect x="0" y="4267" width="304" height="17" class="color0"/><rect x="304" y="4267" width="16" height="17" class="color7"/><rect x="320" y="4267" width="312" height="17" class="color0"/><use xlink:href="#g11" y="4267"/><rect x="0" y="4284" width="304" height="17" class="color0"/><rect x="304" y="4284" width="16" height="17" class="color2"/><rect x="320" y="4284" width="312" height="17" class="color0"/><use xlink:href="#g12" y="4284"/><rect x="0" y="4301" width="304" height="17" class="color0"/><rect x="304" y="4301" width="16" height="17" class="color2"/><rect x="320" y="4301" width="312" height="17" class="color0"/><use xlink:href="#g12" y="4301"/><rect x="0" y="4318" width="304" height="17" class="color0"/><rect x="304" y="4318" width="16" height="17" class="color2"/><rect x="320" y="4318" width="312" height="17" class="color0"/><use xlink:href="#g12" y="4318"/><rect x="0" y="4335" width="304" height="17" class="color0"/><rect x="304" y="4335" width="16" height="17" class="color2"/><rect x="320" y="4335" width="312" height="17" class="color0"/><use xlink:href="#g12" y="4335"/><rect x="0" y="4352" width="304" height="17" class="color0"/><rect x="304" y="4352" width="16" height="17" class="color2"/><rect x="320" y="4352" width="312" height="17" class="color0"/><use xlink:href="#g12" y="4352"/><rect x="0" y="4369" width="632" height="17" class="color0"/><use xlink:href="#g14" y="4369"/><rect x="0" y="4386" width="304" height="17" class="color0"/><rect x="304" y="4386" width="16" height="17" class="color2"/><rect x="320" y="4386" width="312" height="17" class="color0"/><use xlink:href="#g15" y="4386"/><rect x="0" y="4403" width="632" height="17" class="color0"/><use xlink:href="#g16" y="4403"/><rect x="0" y="4420" width="632" height="17" class="color0"/><use xlink:href="#g17" y="4420"/><rect x="0" y="4437" width="280" height="17" class="color0"/><rect x="280" y="4437" width="64" height="17" class="color4"/><rect x="344" y="4437" width="288" height="17" class="color0"/><use xlink:href="#g18" y="4437"/><rect x="0" y="4454" width="632" height="17" class="color0"/><use xlink:href="#g19" y="4454"/></g><g><rect x="0" y="4488" width="632" height="17" class="color0"/><use xlink:href="#g1" y="4488"/><rect x="0" y="4505" width="632" height="17" class="color0"/><use xlink:href="#g2" y="4505"/><rect x="0" y="4522" width="632" height="17" class="color0"/><use xlink:href="#g4" y="4522"/><rect x="0" y="4539" width="632" height="17" class="color0"/><use xlink:href="#g5" y="4539"/><rect x="0" y="4556" width="632" height="17" class="color0"/><use xlink:href="#g6" y="4556"/><rect x="0" y="4573" width="632" height="17" class="color0"/><use xlink:href="#g7" y="4573"/><rect x="0" y="4590" width="632" height="17" class="color0"/><use xlink:href="#g8" y="4590"/><rect x="0" y="4607" width="632" height="17" class="color0"/><use xlink:href="#g9" y="4607"/><rect x="0" y="4624" width="632" height="17" class="color0"/><use xlink:href="#g9" y="4624"/><rect x="0" y="4641" width="632" height="17" class="color0"/><use xlink:href="#g9" y="4641"/><rect x="0" y="4658" width="304" height="17" class="color0"/><rect x="304" y="4658" width="16" height="17" class="color7"/><rect x="320" y="4658" width="312" height="17" class="color0"/><use xlink:href="#g11" y="4658"/><rect x="0" y="4675" width="304" height="17" class="color0"/><rect x="304" y="4675" width="16" height="17" class="color7"/><rect x="320" y="4675" width="312" height="17" class="color0"/><use xlink:href="#g11" y="4675"/><rect x="0" y="4692" width="304" height="17" class="color0"/><rect x="304" y="4692" width="16" height="17" class="color2"/><rect x="320" y="4692" width="312" height="17" class="color0"/><use xlink:href="#g12" y="4692"/><rect x="0" y="4709" width="304" height="17" class="color0"/><rect x="304" y="4709" width="16" height="17" class="color2"/><rect x="320" y="4709" width="312" height="17" class="color0"/><use xlink:href="#g12" y="4709"/><rect x="0" y="4726" width="304" height="17" class="color0"/><rect x="304" y="4726" width="16" height="17" class="color2"/><rect x="320" y="4726" width="312" height="17" class="color0"/><use xlink:href="#g12" y="4726"/><rect x="0" y="4743" width="304" height="17" class="color0"/><rect x="304" y="4743" width="16" height="17" class="color2"/><rect x="320" y="4743" width="312" height="17" class="color0"/><use xlink:href="#g12" y="4743"/><rect x="0" y="4760" width="304" height="17" class="color0"/><rect x="304" y="4760" width="16" height="17" class="color2"/><rect x="320" y="4760" width="312" height="17" class="color0"/><use xlink:href="#g12" y="4760"/><rect x="0" y="4777" width="632" height="17" class="color0"/><use xlink:href="#g14" y="4777"/><rect x="0" y="4794" width="304" height="17" class="color0"/><rect x="304" y="4794" width="16" height="17" class="color2"/><rect x="320" y="4794" width="312" height="17" class="color0"/><use xlink:href="#g15" y="4794"/><rect x="0" y="4811" width="632" height="17" class="color0"/><use xlink:href="#g16" y="4811"/><rect x="0" y="4828" width="632" height="17" class="color0"/><use xlink:href="#g20" y="4828"/><rect x="0" y="4845" width="280" height="17" class="color0"/><rect x="280" y="4845" width="64" height="17" class="color4"/><rect x="344" y="4845" width="288" height="17" class="color0"/><use xlink:href="#g18" y="4845"/><rect x="0" y="4862" width="632" height="17" class="color0"/><use xlink:href="#g19" y="4862"/></g><g><rect x="0" y="4896" width="632" height="17" class="color0"/><use xlink:href="#g1" y="4896"/><rect x="0" y="4913" width="632" height="17" class="color0"/><use xlink:href="#g2" y="4913"/><rect x="0" y="4930" width="632" height="17" class="color0"/><use xlink:href="#g4" y="4930"/><rect x="0" y="4947" width="632" height="17" class="color0"/><use xlink:href="#g5" y="4947"/><rect x="0" y="4964" width="632" height="17" class="color0"/><use xlink:href="#g6" y="4964"/><rect x="0" y="4981" width="632" height="17" class="color0"/><use xlink:href="#g7" y="4981"/><rect x="0" y="4998" width="632" height="17" class="color0"/><use xlink:href="#g8" y="4998"/><rect x="0" y="5015" width="632" height="17" class="color0"/><use xlink:href="#g9" y="5015"/><rect x="0" y="5032" width="632" height="17" class="color0"/><use xlink:href="#g9" y="5032"/><rect x="0" y="5049" width="632" height="17" class="color0"/><use xlink:href="#g9" y="5049"/><rect x="0" y="5066" width="632" height="17" class="color0"/><use xlink:href="#g9" y="5066"/><rect x="0" y="5083" width="304" height="17" class="color0"/><rect x="304" y="5083" width="16" height="17" class="color7"/><rect x="320" y="5083" width="312" height="17" class="color0"/><use xlink:href="#g11" y="5083"/><rect x="0" y="5100" width="304" height="17" class="color0"/><rect x="304" y="5100" width="16" height="17" class="color2"/><rect x="320" y="5100" width="312" height="17" class="color0"/><use xlink:href="#g12" y="5100"/><rect x="0" y="5117" width="304" height="17" class="color0"/><rect x="304" y="5117" width="16" height="17" class="color2"/><rect x="320" y="5117" width="312" height="17" class="color0"/><use xlink:href="#g12" y="5117"/><rect x="0" y="5134" width="304" height="17" class="color0"/><rect x="304" y="5134" width="16" height="17" class="color2"/><rect x="320" y="5134" width="312" height="17" class="color0"/><use xlink:href="#g12" y="5134"/><rect x="0" y="5151" width="304" height="17" class="color0"/><rect x="304" y="5151" width="16" height="17" class="color2"/><rect x="320" y="5151" width="312" height="17" class="color0"/><use xlink:href="#g12" y="5151"/><rect x="0" y="5168" width="304" height="17" class="color0"/><rect x="304" y="5168" width="16" height="17" class="color2"/><rect x="320" y="5168" width="312" height="17" class="color0"/><use xlink:href="#g12" y="5168"/><rect x="0" y="5185" width="632" height="17" class="color0"/><use xlink:href="#g14" y="5185"/><rect x="0" y="5202" width="304" height="17" class="color0"/><rect x="304" y="5202" width="16" height="17" class="color2"/><rect x="320" y="5202" width="312" height="17" class="color0"/><use xlink:href="#g15" y="5202"/><rect x="0" y="5219" width="632" height="17" class="color0"/><use xlink:href="#g16" y="5219"/><rect x="0" y="5236" width="632" height="17" class="color0"/><use xlink:href="#g17" y="5236"/><rect x="0" y="5253" width="280" height="17" class="color0"/><rect x="280" y="5253" width="64" height="17" class="color4"/><rect x="344" y="5253" width="288" height="17" class="color0"/><use xlink:href="#g18" y="5253"/><rect x="0" y="5270" width="632" height="17" class="color0"/><use xlink:href="#g19" y="5270"/></g><g><rect x="0" y="5304" width="632" height="17" class="color0"/><use xlink:href="#g1" y="5304"/><rect x="0" y="5321" width="632" height="17" class="color0"/><use xlink:href="#g2" y="5321"/><rect x="0" y="5338" width="632" height="17" class="color0"/><use xlink:href="#g4" y="5338"/><rect x="0" y="5355" width="632" height="17" class="color0"/><use xlink:href="#g5" y="5355"/><rect x="0" y="5372" width="632" height="17" class="color0"/><use xlink:href="#g6" y="5372"/><rect x="0" y="5389" width="632" height="17" class="color0"/><use xlink:href="#g7" y="5389"/><rect x="0" y="5406" width="632" height="17" class="color0"/><use xlink:href="#g8" y="5406"/><rect x="0" y="5423" width="632" height="17" class="color0"/><use xlink:href="#g9" y="5423"/><rect x="0" y="5440" width="632" height="17" class="color0"/><use xlink:href="#g9" y="5440"/><rect x="0" y="5457" width="632" height="17" class="color0"/><use xlink:href="#g9" y="5457"/><rect x="0" y="5474" width="632" height="17" class="color0"/><use xlink:href="#g9" y="5474"/><rect x="0" y="5491" width="304" height="17" class="color0"/><rect x="304" y="5491" width="16" height="17" class="color7"/><rect x="320" y="5491" width="312" height="17" class="color0"/><use xlink:href="#g11" y="5491"/><rect x="0" y="5508" width="304" height="17" class="color0"/><rect x="304" y="5508" width="16" height="17" class="color2"/><rect x="320" y="5508" width="312" height="17" class="color0"/><use xlink:href="#g12" y="5508"/><rect x="0" y="5525" width="304" height="17" class="color0"/><rect x="304" y="5525" width="16" height="17" class="color2"/><rect x="320" y="5525" width="312" height="17" class="color0"/><use xlink:href="#g12" y="5525"/><rect x="0" y="5542" width="304" height="17" class="color0"/><rect x="304" y="5542" width="16" height="17" class="color2"/><rect x="320" y="5542" width="312" height="17" class="color0"/><use xlink:href="#g12" y="5542"/><rect x="0" y="5559" width="304" height="17" class="color0"/><rect x="304" y="5559" width="16" height="17" class="color2"/><rect x="320" y="5559" width="312" height="17" class="color0"/><use xlink:href="#g12" y="5559"/><rect x="0" y="5576" width="304" height="17" class="color0"/><rect x="304" y="5576" width="16" height="17" class="color2"/><rect x="320" y="5576" width="312" height="17" class="color0"/><use xlink:href="#g12" y="5576"/><rect x="0" y="5593" width="632" height="17" class="color0"/><use xlink:href="#g14" y="5593"/><rect x="0" y="5610" width="304" height="17" class="color0"/><rect x="304" y="5610" width="16" height="17" class="color2"/><rect x="320" y="5610" width="312" height="17" class="color0"/><use xlink:href="#g15" y="5610"/><rect x="0" y="5627" width="632" height="17" class="color0"/><use xlink:href="#g16" y="5627"/><rect x="0" y="5644" width="632" height="17" class="color0"/><use xlink:href="#g17" y="5644"/><rect x="0" y="5661" width="280" height="17" class="color0"/><rect x="280" y="5661" width="64" height="17" class="color4"/><rect x="344" y="5661" width="288" height="17" class="color0"/><use xlink:href="#g18" y="5661"/><rect x="0" y="5678" width="8" height="17" class="foreground"/><rect x="8" y="5678" width="624" height="17" class="color0"/><use xlink:href="#g21" y="5678"/></g></g></svg>
</svg>